<svg width="60" height="60" viewBox="0 0 60 60" fill="none" xmlns="http://www.w3.org/2000/svg">
<rect width="60" height="60" rx="10" fill="#DDEDE0"/>
<g clip-path="url(#clip0_79_2)">
<path d="M41.25 17.5C41.25 16.81 41.81 16.25 42.5 16.25C43.19 16.25 43.75 16.81 43.75 17.5C43.75 18.19 43.19 18.75 42.5 18.75C41.81 18.75 41.25 18.19 41.25 17.5ZM37.5 18.75C38.19 18.75 38.75 18.19 38.75 17.5C38.75 16.81 38.19 16.25 37.5 16.25C36.81 16.25 36.25 16.81 36.25 17.5C36.25 18.19 36.81 18.75 37.5 18.75ZM32.5 18.75C33.19 18.75 33.75 18.19 33.75 17.5C33.75 16.81 33.19 16.25 32.5 16.25C31.81 16.25 31.25 16.81 31.25 17.5C31.25 18.19 31.81 18.75 32.5 18.75ZM42.5 21.25C41.81 21.25 41.25 21.81 41.25 22.5C41.25 23.19 41.81 23.75 42.5 23.75C43.19 23.75 43.75 23.19 43.75 22.5C43.75 21.81 43.19 21.25 42.5 21.25ZM43.75 36.5625C43.75 40.0962 40.71 43.75 35.625 43.75C32.6588 43.75 26.8238 41.0913 22.8663 37.1338C18.9088 33.1763 16.25 27.3412 16.25 24.375C16.25 19.2888 19.905 16.25 23.4375 16.25C26.7112 16.25 29.375 18.9138 29.375 22.1875C29.375 23.835 28.6813 25.4225 27.4738 26.5425C27.385 26.625 27.2863 26.715 27.18 26.81C27.5038 27.5987 28.5363 29.2675 29.635 30.3663C30.7338 31.465 32.4025 32.4975 33.1913 32.8212C33.2863 32.715 33.3763 32.6162 33.4588 32.5262C34.58 31.3175 36.1675 30.625 37.8137 30.625C41.0875 30.625 43.75 33.2888 43.75 36.5625ZM41.25 36.5625C41.25 34.6663 39.7087 33.125 37.8125 33.125C36.845 33.125 35.95 33.515 35.2912 34.225C35.1175 34.4125 34.91 34.6475 34.6938 34.8962C34.415 35.2175 34.0087 35.4037 33.5487 35.4187C31.9737 35.4687 29.0737 33.3413 27.865 32.1325C26.6562 30.9238 24.5238 27.99 24.5788 26.4488C24.595 25.9888 24.78 25.5838 25.1013 25.305C25.3513 25.0888 25.5837 24.8838 25.7687 24.7113C26.4825 24.05 26.8737 23.155 26.8737 22.1863C26.8737 20.29 25.3325 18.7488 23.4363 18.7488C21.6238 18.7488 18.7488 20.2762 18.7488 24.3738C18.7488 26.5063 20.9875 31.7187 24.6325 35.365C28.2775 39.0112 33.4913 41.2488 35.6238 41.2488C39.7213 41.2488 41.2488 38.3738 41.2488 36.5613L41.25 36.5625ZM32.5 23.75H37.5C38.1912 23.75 38.75 23.19 38.75 22.5C38.75 21.81 38.1912 21.25 37.5 21.25H32.5C31.8088 21.25 31.25 21.81 31.25 22.5C31.25 23.19 31.8088 23.75 32.5 23.75Z" fill="#2B533D"/>
</g>
<defs>
<clipPath id="clip0_79_2">
<rect width="30" height="30" fill="white" transform="translate(15 15)"/>
</clipPath>
</defs>
</svg>
