<?xml version="1.0" encoding="UTF-8"?>
<svg version="1.1" xmlns="http://www.w3.org/2000/svg" width="60" height="60">
<path d="M0 0 C6.26250354 4.72980669 11.25194061 9.68351583 13.04296875 17.54296875 C14.40708288 28.95141714 13.71227701 38.2980711 6.46875 47.5546875 C1.21471225 53.39658962 -4.3460236 56.34144325 -12.18359375 56.95703125 C-23.34865798 57.47317206 -31.31724353 55.95092248 -39.83203125 48.29296875 C-46.98004736 40.33383024 -47.82609421 32.24649397 -47.40234375 21.87109375 C-46.77155221 13.70251954 -42.90412789 7.4373358 -36.8671875 2.015625 C-26.95801624 -5.62396102 -10.79487348 -6.63299454 0 0 Z " fill="#223B2E" transform="translate(46.95703125,3.45703125)"/>
<path d="M0 0 C2.23139222 4.29113889 2.99181617 8.29117801 2.625 13.125 C0.8125 15.75 0.8125 15.75 -1.375 17.125 C-2.035 17.125 -2.695 17.125 -3.375 17.125 C-3.705 16.465 -4.035 15.805 -4.375 15.125 C-4.705 16.445 -5.035 17.765 -5.375 19.125 C-7.355 18.795 -9.335 18.465 -11.375 18.125 C-11.375 17.135 -11.375 16.145 -11.375 15.125 C-10.385 14.795 -9.395 14.465 -8.375 14.125 C-11.82034004 13.26366499 -13.97879646 13.18811626 -17.375 14.125 C-18.035 13.795 -18.695 13.465 -19.375 13.125 C-19.375 11.475 -19.375 9.825 -19.375 8.125 C-18.715 8.125 -18.055 8.125 -17.375 8.125 C-17.4678125 6.7328125 -17.4678125 6.7328125 -17.5625 5.3125 C-17.375 2.125 -17.375 2.125 -16.1875 0.3125 C-11.54942849 -2.72623651 -4.40436873 -3.47713321 0 0 Z " fill="#E5A481" transform="translate(39.375,15.875)"/>
<path d="M0 0 C4.23762376 6.35643564 4.23762376 6.35643564 5 10.25 C5.82219018 14.23696984 6.83807846 18.09926341 8 22 C1.31932365 22.72616047 -3.40751416 20.60920812 -9 17 C-11.52911467 14.82190125 -13.80979689 12.51655788 -16 10 C-13.66785852 8.79371992 -11.50357861 7.8345262 -9 7 C-8.67 6.34 -8.34 5.68 -8 5 C-6.68 5 -5.36 5 -4 5 C-3.67 4.01 -3.34 3.02 -3 2 C-2.01 2 -1.02 2 0 2 C0 1.34 0 0.68 0 0 Z " fill="#191C1A" transform="translate(20,38)"/>
<path d="M0 0 C0.97299156 4.85729645 1.12038805 9.4500625 1.0625 14.375 C1.05798828 15.11105469 1.05347656 15.84710938 1.04882812 16.60546875 C1.03715142 18.40368158 1.01922011 20.20185197 1 22 C-2.63 22 -6.26 22 -10 22 C-12.65105931 15.84270096 -14.50509874 10.68116707 -15 4 C-14.34 4 -13.68 4 -13 4 C-13 4.66 -13 5.32 -13 6 C-11.02 6 -9.04 6 -7 6 C-7 5.34 -7 4.68 -7 4 C-1.47058824 0 -1.47058824 0 0 0 Z " fill="#E2A482" transform="translate(38,38)"/>
<path d="M0 0 C0.33 1.32 0.66 2.64 1 4 C3.33075929 3.04134491 3.33075929 3.04134491 5 0 C6.29743778 3.89231333 5.7290731 5.31632252 4 9 C-1.05263158 13 -1.05263158 13 -4 13 C-4 13.66 -4 14.32 -4 15 C-5.98 15 -7.96 15 -10 15 C-10 14.34 -10 13.68 -10 13 C-10.99 13.33 -11.98 13.66 -13 14 C-13.33 12.02 -13.66 10.04 -14 8 C-13.29875 8.474375 -12.5975 8.94875 -11.875 9.4375 C-8.83918663 11.08739857 -6.40831214 11.60368464 -3 12 C-3 11.01 -3 10.02 -3 9 C-4.32 9 -5.64 9 -7 9 C-9 6 -9 6 -9 3 C-8.34 3 -7.68 3 -7 3 C-7 3.66 -7 4.32 -7 5 C-4.03 5.495 -4.03 5.495 -1 6 C-0.67 4.02 -0.34 2.04 0 0 Z " fill="#7A4122" transform="translate(35,29)"/>
<path d="M0 0 C-0.04125 0.78375 -0.0825 1.5675 -0.125 2.375 C-0.28728734 5.16116119 -0.28728734 5.16116119 2 7 C2.125 10.625 2.125 10.625 2 14 C0.88625 13.9690625 0.88625 13.9690625 -0.25 13.9375 C-2.93233957 13.89438005 -2.93233957 13.89438005 -5.1875 14.5625 C-7 15 -7 15 -9 14 C-9 12.35 -9 10.7 -9 9 C-8.34 9 -7.68 9 -7 9 C-7.0928125 7.6078125 -7.0928125 7.6078125 -7.1875 6.1875 C-7 3 -7 3 -5.75 1.125 C-4 0 -4 0 0 0 Z " fill="#A26F59" transform="translate(29,15)"/>
<path d="M0 0 C0.33 0 0.66 0 1 0 C0.5547115 5.27315333 -0.08373163 10.01770224 -2 15 C-3.98 15 -5.96 15 -8 15 C-8.67305018 13.39850114 -9.33822227 11.79368971 -10 10.1875 C-10.37125 9.29417969 -10.7425 8.40085937 -11.125 7.48046875 C-12 5 -12 5 -12 2 C-8.62417953 2.60282508 -6.65843209 3.87325432 -4 6 C-3.34 6.33 -2.68 6.66 -2 7 C-1.34 4.69 -0.68 2.38 0 0 Z " fill="#574236" transform="translate(36,45)"/>
<path d="M0 0 C4.75 0.75 4.75 0.75 7 3 C4.69 3.33 2.38 3.66 0 4 C0.66 5.98 1.32 7.96 2 10 C3.32 10 4.64 10 6 10 C6 10.99 6 11.98 6 13 C3.25 13.3125 3.25 13.3125 0 13 C-3.21775827 9.95617461 -4.49930857 7.38104998 -5 3 C-3.68 3 -2.36 3 -1 3 C-0.67 2.01 -0.34 1.02 0 0 Z " fill="#321B05" transform="translate(26,28)"/>
<path d="M0 0 C3.81500629 5.08667506 5.25183416 7.40587501 5.625 13.6875 C5.69976562 14.86699219 5.77453125 16.04648437 5.8515625 17.26171875 C5.90054688 18.16535156 5.94953125 19.06898437 6 20 C4.35 20.33 2.7 20.66 1 21 C0.67 14.07 0.34 7.14 0 0 Z " fill="#3F3634" transform="translate(38,38)"/>
<path d="M0 0 C0.33 0 0.66 0 1 0 C1.97299156 4.85729645 2.12038805 9.4500625 2.0625 14.375 C2.05798828 15.11105469 2.05347656 15.84710938 2.04882812 16.60546875 C2.03715142 18.40368158 2.01922011 20.20185197 2 22 C0.35 22 -1.3 22 -3 22 C-2.34 18.04 -1.68 14.08 -1 10 C-1.33 10 -1.66 10 -2 10 C-2.1953125 3.9453125 -2.1953125 3.9453125 -2 2 C-1.34 1.34 -0.68 0.68 0 0 Z " fill="#A38A7F" transform="translate(37,38)"/>
<path d="M0 0 C2.875 -0.125 2.875 -0.125 6 0 C8 2 8 2 8.125 5.625 C8.08375 6.73875 8.0425 7.8525 8 9 C5.03 8.01 2.06 7.02 -1 6 C-0.67 4.02 -0.34 2.04 0 0 Z " fill="#F2B793" transform="translate(32,15)"/>
<path d="M0 0 C0.33 0 0.66 0 1 0 C1.33 3.3 1.66 6.6 2 10 C1.01 10 0.02 10 -1 10 C-1 9.01 -1 8.02 -1 7 C-3.97 6.505 -3.97 6.505 -7 6 C-7 5.01 -7 4.02 -7 3 C-4.03 3.495 -4.03 3.495 -1 4 C-0.67 2.68 -0.34 1.36 0 0 Z " fill="#A97E5D" transform="translate(40,19)"/>
<path d="M0 0 C4.875 1.875 4.875 1.875 6 3 C6.04063832 4.66617115 6.042721 6.33388095 6 8 C4.35 7.67 2.7 7.34 1 7 C0.67 4.69 0.34 2.38 0 0 Z " fill="#B4AEAA" transform="translate(26,52)"/>
<path d="M0 0 C-0.33 1.32 -0.66 2.64 -1 4 C-1.33 3.67 -1.66 3.34 -2 3 C-3.85287502 2.92773498 -5.70833878 2.9161878 -7.5625 2.9375 C-8.57441406 2.94652344 -9.58632813 2.95554687 -10.62890625 2.96484375 C-11.41136719 2.97644531 -12.19382812 2.98804688 -13 3 C-9.04664037 -1.2504329 -5.53545836 -1.42340358 0 0 Z " fill="#633F29" transform="translate(39,12)"/>
<path d="M0 0 C1.66611905 -0.042721 3.33382885 -0.04063832 5 0 C6 1 6 1 6.0625 4.5625 C6.041875 5.696875 6.02125 6.83125 6 8 C4.68 7.34 3.36 6.68 2 6 C2.33 5.01 2.66 4.02 3 3 C1.68 2.67 0.36 2.34 -1 2 C-0.67 1.34 -0.34 0.68 0 0 Z " fill="#8F5239" transform="translate(25,21)"/>
<path d="M0 0 C0.33 0.66 0.66 1.32 1 2 C-0.093125 2.28875 -1.18625 2.5775 -2.3125 2.875 C-6.04013845 3.81893204 -6.04013845 3.81893204 -9 6 C-9 4.35 -9 2.7 -9 1 C-5.68042385 -1.0901035 -3.73206842 -1.21040057 0 0 Z " fill="#2F2B17" transform="translate(33,10)"/>
<path d="M0 0 C0.721875 0.45375 1.44375 0.9075 2.1875 1.375 C4.74894081 2.85494358 7.23277989 3.97217539 10 5 C10 5.66 10 6.32 10 7 C8.02 7 6.04 7 4 7 C4 6.34 4 5.68 4 5 C3.01 5.33 2.02 5.66 1 6 C0.67 4.02 0.34 2.04 0 0 Z " fill="#77594A" transform="translate(21,37)"/>
<path d="M0 0 C2.31 0 4.62 0 7 0 C7 0.33 7 0.66 7 1 C5.35 1 3.7 1 2 1 C1.79029441 5.14093698 1.79029441 5.14093698 3 9 C2.34 9.66 1.68 10.32 1 11 C0.67 10.01 0.34 9.02 0 8 C-0.66 7.34 -1.32 6.68 -2 6 C-1.34 4.02 -0.68 2.04 0 0 Z " fill="#D89478" transform="translate(30,14)"/>
<path d="M0 0 C0.66 0 1.32 0 2 0 C2.33 2.64 2.66 5.28 3 8 C1.35 8 -0.3 8 -2 8 C-1.34 5.36 -0.68 2.72 0 0 Z " fill="#C8BBB7" transform="translate(36,52)"/>
<path d="M0 0 C4.75 0.75 4.75 0.75 7 3 C4.69 3.33 2.38 3.66 0 4 C-0.33 4.99 -0.66 5.98 -1 7 C-1.33 6.34 -1.66 5.68 -2 5 C-2.99 4.34 -3.98 3.68 -5 3 C-3.68 3 -2.36 3 -1 3 C-0.67 2.01 -0.34 1.02 0 0 Z " fill="#54290F" transform="translate(26,28)"/>
<path d="M0 0 C0.99 0 1.98 0 3 0 C4.44207941 2.88415883 4.09394887 5.41721528 4.0625 8.625 C4.05347656 9.81351563 4.04445313 11.00203125 4.03515625 12.2265625 C4.02355469 13.14179688 4.01195312 14.05703125 4 15 C3.01 15.495 3.01 15.495 2 16 C1.93941406 15.09636719 1.87882812 14.19273438 1.81640625 13.26171875 C1.73261719 12.08222656 1.64882813 10.90273438 1.5625 9.6875 C1.48128906 8.51574219 1.40007813 7.34398437 1.31640625 6.13671875 C1.1132629 2.97409042 1.1132629 2.97409042 0 0 Z " fill="#373E29" transform="translate(39,16)"/>
<path d="M0 0 C0.66 0.33 1.32 0.66 2 1 C1.34 2.98 0.68 4.96 0 7 C-2.97 6.505 -2.97 6.505 -6 6 C-6 5.01 -6 4.02 -6 3 C-4.03533587 1.93224776 -2.03144641 0.93446535 0 0 Z " fill="#B46F51" transform="translate(34,28)"/>
<path d="M0 0 C0.33 0 0.66 0 1 0 C1 1.65 1 3.3 1 5 C0.34 5 -0.32 5 -1 5 C-0.34 5.66 0.32 6.32 1 7 C1 8.32 1 9.64 1 11 C1.99 11.33 2.98 11.66 4 12 C2.68 12 1.36 12 0 12 C-0.33 12.66 -0.66 13.32 -1 14 C-2.57027317 12.42972683 -2.16974386 10.85730053 -2.1875 8.6875 C-2.20167969 7.90761719 -2.21585938 7.12773437 -2.23046875 6.32421875 C-1.97984413 3.7967332 -1.26373772 2.18281969 0 0 Z " fill="#473C2B" transform="translate(21,19)"/>
<path d="M0 0 C1.37810527 2.75621054 0.97919884 5.09263335 0.83984375 8.125 C0.81834421 10.24791868 0.81834421 10.24791868 3 12 C-0.75 13.125 -0.75 13.125 -3 12 C-3 10.35 -3 8.7 -3 7 C-2.34 7 -1.68 7 -1 7 C-1.020625 6.030625 -1.04125 5.06125 -1.0625 4.0625 C-1 1 -1 1 0 0 Z " fill="#805F50" transform="translate(23,17)"/>
<path d="M0 0 C0.66 1.32 1.32 2.64 2 4 C2.99 4.33 3.98 4.66 5 5 C4.67 6.32 4.34 7.64 4 9 C2.68 9 1.36 9 0 9 C0 6.03 0 3.06 0 0 Z " fill="#A87765" transform="translate(23,19)"/>
<path d="M0 0 C0.66 0 1.32 0 2 0 C2 0.66 2 1.32 2 2 C3.32 2 4.64 2 6 2 C6 3.98 6 5.96 6 8 C3.5625 6.8125 3.5625 6.8125 1 5 C0.1875 2.3125 0.1875 2.3125 0 0 Z " fill="#B19387" transform="translate(23,42)"/>
<path d="M0 0 C1.43088528 2.86177057 0.59991697 4.93375773 0 8 C-1.32 7.34 -2.64 6.68 -4 6 C-4 5.01 -4 4.02 -4 3 C-3.34 3 -2.68 3 -2 3 C-2 2.34 -2 1.68 -2 1 C-1.34 0.67 -0.68 0.34 0 0 Z " fill="#D18D68" transform="translate(33,41)"/>
<path d="M0 0 C2.64 0 5.28 0 8 0 C8 0.99 8 1.98 8 3 C5.125 3.1875 5.125 3.1875 2 3 C1.34 2.01 0.68 1.02 0 0 Z " fill="#401B02" transform="translate(24,38)"/>
<path d="M0 0 C3 4 3 4 4 7 C3.34 7 2.68 7 2 7 C1.67 7.99 1.34 8.98 1 10 C0.67 6.7 0.34 3.4 0 0 Z " fill="#333223" transform="translate(38,38)"/>
<path d="M0 0 C0.33 0 0.66 0 1 0 C1.22036864 3.85645121 0.60355101 6.49223216 -1 10 C-1.33 10 -1.66 10 -2 10 C-2.1953125 3.9453125 -2.1953125 3.9453125 -2 2 C-1.34 1.34 -0.68 0.68 0 0 Z " fill="#C69875" transform="translate(37,38)"/>
<path d="M0 0 C0.66 0 1.32 0 2 0 C2 0.66 2 1.32 2 2 C2.66 2 3.32 2 4 2 C4 2.99 4 3.98 4 5 C4.66 5.33 5.32 5.66 6 6 C4.68 6 3.36 6 2 6 C0 3 0 3 0 0 Z " fill="#6A361B" transform="translate(26,32)"/>
</svg>
