<svg width="60" height="60" viewBox="0 0 60 60" fill="none" xmlns="http://www.w3.org/2000/svg">
<rect width="60" height="60" rx="10" fill="#DDEDE0"/>
<g clip-path="url(#clip0_79_24)">
<g clip-path="url(#clip1_79_24)">
<g clip-path="url(#clip2_79_24)">
<path d="M32.5 37.5022H27.5C26.1212 37.5022 25 36.381 25 35.0022V30.0022C25 28.6235 26.1212 27.5022 27.5 27.5022H32.5C33.8788 27.5022 35 28.6235 35 30.0022V35.0022C35 36.381 33.8788 37.5022 32.5 37.5022ZM27.5 30.0022V35.0022H32.5025L32.5 30.0022H27.5ZM38.75 45.0022H21.25C17.8038 45.0022 15 42.1985 15 38.7522V27.1572C15 25.076 16.03 23.1385 17.755 21.976L26.5038 16.071C28.6275 14.6385 31.3725 14.6385 33.4962 16.071L42.2463 21.976C43.97 23.1385 45 25.0747 45 27.1572V38.7522C45 42.1985 42.1962 45.0022 38.75 45.0022ZM30 17.4985C29.27 17.4985 28.54 17.7135 27.9025 18.1447L19.1525 24.0485C18.1175 24.746 17.5 25.9072 17.5 27.156V38.751C17.5 40.8185 19.1825 42.501 21.25 42.501H38.75C40.8175 42.501 42.5 40.8185 42.5 38.751V27.1572C42.5 25.9085 41.8825 24.746 40.8488 24.0497L32.0975 18.1447C31.46 17.7135 30.73 17.4985 30 17.4985Z" fill="#2B533D"/>
</g>
</g>
</g>
<defs>
<clipPath id="clip0_79_24">
<rect width="30" height="30" fill="white" transform="translate(15 15)"/>
</clipPath>
<clipPath id="clip1_79_24">
<rect width="30" height="30" fill="white" transform="translate(15 15)"/>
</clipPath>
<clipPath id="clip2_79_24">
<rect width="30" height="30" fill="white" transform="translate(15 15.0024)"/>
</clipPath>
</defs>
</svg>
