<svg width="60" height="60" viewBox="0 0 60 60" fill="none" xmlns="http://www.w3.org/2000/svg">
<rect width="60" height="60" rx="10" fill="#DDEDE0"/>
<g clip-path="url(#clip0_79_29)">
<g clip-path="url(#clip1_79_29)">
<path d="M15.0005 18.7497C15.0005 18.0597 15.5605 17.4997 16.2505 17.4997H16.6855C17.843 17.4997 19.003 17.226 20.0393 16.7085L22.1418 15.6572C23.003 15.2272 23.9655 15.001 24.9255 15.001C26.5268 15.001 28.0155 15.5772 29.163 16.6235L30.038 17.421L30.8105 16.6935C32.6668 14.9447 35.5718 14.5147 37.8593 15.6572L39.9618 16.7085C40.998 17.2272 42.158 17.4997 43.3155 17.4997H43.7505C44.4405 17.4997 45.0005 18.0597 45.0005 18.7497C45.0005 19.4397 44.4405 19.9997 43.7505 19.9997H43.3155C41.7718 19.9997 40.2255 19.6347 38.843 18.9447L36.7405 17.8935C35.373 17.211 33.633 17.4672 32.523 18.5122L26.6418 24.0485C26.1943 24.4972 26.0893 25.241 26.4318 25.7172C26.6555 26.0285 26.9843 26.216 27.3555 26.246C27.7205 26.281 28.0818 26.1447 28.3405 25.8835L33.558 20.8897C34.0568 20.4135 34.848 20.4297 35.3255 20.9285C35.803 21.4272 35.7855 22.2185 35.2868 22.696L33.078 24.8097L34.498 25.8747C35.0505 26.2885 35.1618 27.0722 34.748 27.6247C34.503 27.9522 34.1268 28.1247 33.7468 28.1247C33.4868 28.1247 33.223 28.0435 32.998 27.8747L31.248 26.5622L30.0893 27.671C29.4005 28.3597 28.4493 28.7497 27.4593 28.7497C27.358 28.7497 27.2568 28.746 27.1543 28.7372C26.0568 28.6485 25.053 28.0797 24.403 27.176C23.3468 25.7085 23.5605 23.5922 24.9005 22.2522L28.2093 19.1372L27.4768 18.4697C26.3293 17.4247 24.5405 17.2485 23.2568 17.8922L21.1555 18.9435C19.7743 19.6335 18.228 19.9985 16.683 19.9985H16.248C15.558 19.9985 14.998 19.4385 14.998 18.7485L15.0005 18.7497ZM45.0005 37.4997C45.0005 41.636 41.6368 44.9997 37.5005 44.9997C33.3643 44.9997 30.0005 41.636 30.0005 37.4997C30.0005 33.3635 33.3643 29.9997 37.5005 29.9997C41.6368 29.9997 45.0005 33.3635 45.0005 37.4997ZM42.5005 37.4997C42.5005 34.7422 40.258 32.4997 37.5005 32.4997C34.743 32.4997 32.5005 34.7422 32.5005 37.4997C32.5005 40.2572 34.743 42.4997 37.5005 42.4997C40.258 42.4997 42.5005 40.2572 42.5005 37.4997ZM21.5005 32.9997C19.9955 31.871 18.1318 31.2497 16.2505 31.2497C15.5605 31.2497 15.0005 31.8085 15.0005 32.4997C15.0005 33.191 15.5605 33.7497 16.2505 33.7497C17.5943 33.7497 18.9268 34.1935 20.0005 34.9997L25.5005 39.1247C25.7255 39.2935 25.9893 39.3747 26.2493 39.3747C26.6293 39.3747 27.0043 39.2022 27.2505 38.8747C27.6655 38.3235 27.553 37.5397 27.0005 37.126L21.5005 33.001V32.9997ZM39.1343 35.3472L36.9268 37.466C36.883 37.5097 36.8143 37.5097 36.7705 37.466L35.648 36.3672C35.1543 35.8847 34.3655 35.8922 33.8793 36.3872C33.3968 36.881 33.4055 37.671 33.898 38.1547L35.0205 39.2535C35.5268 39.7485 36.1905 39.996 36.853 39.996C37.5155 39.996 38.173 39.7497 38.6705 39.2585L40.8655 37.151C41.363 36.6722 41.3805 35.881 40.9018 35.3835C40.4243 34.8835 39.633 34.8697 39.1343 35.3472Z" fill="#2B533D"/>
</g>
</g>
<defs>
<clipPath id="clip0_79_29">
<rect width="30" height="30" fill="white" transform="translate(15 15)"/>
</clipPath>
<clipPath id="clip1_79_29">
<rect width="30" height="30" fill="white" transform="translate(15 15)"/>
</clipPath>
</defs>
</svg>
